<?xml version="1.0" encoding="UTF-8" standalone="no"?>
<svg
   xmlns:dc="http://purl.org/dc/elements/1.1/"
   xmlns:cc="http://creativecommons.org/ns#"
   xmlns:rdf="http://www.w3.org/1999/02/22-rdf-syntax-ns#"
   xmlns:svg="http://www.w3.org/2000/svg"
   xmlns="http://www.w3.org/2000/svg"
   xmlns:sodipodi="http://sodipodi.sourceforge.net/DTD/sodipodi-0.dtd"
   xmlns:inkscape="http://www.inkscape.org/namespaces/inkscape"
   aria-hidden="true"
   focusable="false"
   data-prefix="fab"
   data-icon="reddit-alien"
   class="svg-inline--fa fa-reddit-alien fa-w-16"
   role="img"
   viewBox="0 0 16 16"
   version="1.1"
   id="svg12"
   sodipodi:docname="reddit.svg"
   width="16"
   height="16"
   inkscape:version="1.0.2 (e86c8708, 2021-01-15)">
  <metadata
     id="metadata18">
    <rdf:RDF>
      <cc:Work
         rdf:about="">
        <dc:format>image/svg+xml</dc:format>
        <dc:type
           rdf:resource="http://purl.org/dc/dcmitype/StillImage" />
        <dc:title></dc:title>
      </cc:Work>
    </rdf:RDF>
  </metadata>
  <defs
     id="defs16" />
  <sodipodi:namedview
     pagecolor="#ffffff"
     bordercolor="#666666"
     borderopacity="1"
     objecttolerance="10"
     gridtolerance="10"
     guidetolerance="10"
     inkscape:pageopacity="0"
     inkscape:pageshadow="2"
     inkscape:window-width="1268"
     inkscape:window-height="1120"
     id="namedview14"
     showgrid="false"
     inkscape:zoom="45.5"
     inkscape:cx="8"
     inkscape:cy="8"
     inkscape:window-x="1077"
     inkscape:window-y="100"
     inkscape:window-maximized="0"
     inkscape:current-layer="svg12"
     inkscape:document-rotation="0" />
  <path
     fill="currentColor"
     d="m 13.841871,6.3376595 c -0.475407,0 -0.893765,0.1965014 -1.201195,0.5039321 C 11.509207,6.0587539 9.9847351,5.5548228 8.2954557,5.5009436 L 9.1733736,1.5455572 11.968768,2.1730936 c 0,0.6845865 0.55781,1.2423976 1.242397,1.2423976 0.697263,0 1.258243,-0.5736581 1.258243,-1.2582437 0,-0.6845864 -0.55781,-1.25824468 -1.258243,-1.25824468 -0.488086,0 -0.909613,0.29475258 -1.118792,0.69726448 L 9.0053963,0.91168083 C 8.8500969,0.87047494 8.6979666,0.98140509 8.6567645,1.1367063 L 7.6932734,5.4977737 C 6.0166708,5.567498 4.5080452,6.0714319 3.3734078,6.8542686 3.0659772,6.5341609 2.6317722,6.3376595 2.1563652,6.3376595 c -1.76217475,0 -2.33900198,2.3643581 -0.7257875,3.1725498 -0.057046,0.2503815 -0.082402,0.5166097 -0.082402,0.7828367 0,2.655941 2.9918953,4.807951 6.6652066,4.807951 3.6891587,0 6.6810537,-2.15201 6.6810537,-4.807951 0,-0.266227 -0.02853,-0.5451332 -0.09825,-0.7955137 1.58152,-0.8113617 0.998354,-3.1598728 -0.754313,-3.1598728 z M 3.9882671,9.6781867 c 0,-0.6972636 0.5578112,-1.2582438 1.2582437,-1.2582438 0.6845869,0 1.242398,0.5578103 1.242398,1.2582438 0,0.6845873 -0.5578111,1.2423973 -1.242398,1.2423973 -0.6972635,0.0031 -1.2582437,-0.55781 -1.2582437,-1.2423973 z m 6.7666279,1.2455673 c -0.684587,0 -1.2423987,-0.557812 -1.2423987,-1.2423983 0,-0.6972636 0.5578117,-1.2582437 1.2423987,-1.2582437 0.697263,0 1.258243,0.5578111 1.258243,1.2582437 -0.0031,0.6814183 -0.56098,1.2423983 -1.258243,1.2423983 z"
     id="path10"
     style="fill:none;stroke:#000000;stroke-width:0.969301;stroke-miterlimit:4;stroke-dasharray:none;stroke-opacity:1"
     sodipodi:nodetypes="sccccssscccccscssscssssscsssscs" />
</svg>
