<?xml version="1.0" encoding="UTF-8" standalone="no"?>
<svg
   xmlns:dc="http://purl.org/dc/elements/1.1/"
   xmlns:cc="http://creativecommons.org/ns#"
   xmlns:rdf="http://www.w3.org/1999/02/22-rdf-syntax-ns#"
   xmlns:svg="http://www.w3.org/2000/svg"
   xmlns="http://www.w3.org/2000/svg"
   xmlns:sodipodi="http://sodipodi.sourceforge.net/DTD/sodipodi-0.dtd"
   xmlns:inkscape="http://www.inkscape.org/namespaces/inkscape"
   aria-hidden="true"
   focusable="false"
   data-prefix="fab"
   data-icon="reddit-alien"
   class="svg-inline--fa fa-reddit-alien fa-w-16"
   role="img"
   viewBox="0 0 16 16"
   version="1.1"
   id="svg12"
   sodipodi:docname="reddit.svg"
   width="16"
   height="16"
   inkscape:version="1.0.2 (e86c8708, 2021-01-15)">
  <metadata
     id="metadata18">
    <rdf:RDF>
      <cc:Work
         rdf:about="">
        <dc:format>image/svg+xml</dc:format>
        <dc:type
           rdf:resource="http://purl.org/dc/dcmitype/StillImage" />
        <dc:title></dc:title>
      </cc:Work>
    </rdf:RDF>
  </metadata>
  <defs
     id="defs16" />
  <sodipodi:namedview
     pagecolor="#ffffff"
     bordercolor="#666666"
     borderopacity="1"
     objecttolerance="10"
     gridtolerance="10"
     guidetolerance="10"
     inkscape:pageopacity="0"
     inkscape:pageshadow="2"
     inkscape:window-width="1268"
     inkscape:window-height="1120"
     id="namedview14"
     showgrid="false"
     inkscape:zoom="45.5"
     inkscape:cx="8"
     inkscape:cy="8"
     inkscape:window-x="1077"
     inkscape:window-y="128"
     inkscape:window-maximized="0"
     inkscape:current-layer="svg12" />
  <path
     fill="currentColor"
     d="m 14.02686,6.2850108 c -0.490464,0 -0.922072,0.2027249 -1.239239,0.5198924 C 11.620317,5.9972718 10.047562,5.4773804 8.3047805,5.4217948 L 9.2105034,1.341135 12.094433,1.9885465 c 0,0.7062684 0.575476,1.2817463 1.281745,1.2817463 0.719347,0 1.298094,-0.5918268 1.298094,-1.2980943 0,-0.7062683 -0.575477,-1.29809521 -1.298094,-1.29809521 -0.503544,0 -0.938421,0.3040879 -1.154225,0.71934791 L 9.037206,0.68718283 C 8.876988,0.64467189 8.7200395,0.75911537 8.6775325,0.91933525 L 7.6835261,5.4185245 C 5.9538229,5.490457 4.3974167,6.0103513 3.2268435,6.8179817 2.9096761,6.4877357 2.4617192,6.2850108 1.9712553,6.2850108 c -1.81798564,0 -2.4130819,2.439241 -0.7487744,3.2730294 -0.058853,0.2583115 -0.085012,0.5329718 -0.085012,0.8076308 0,2.740059 3.0866534,4.960226 6.8763043,4.960226 3.8060008,0 6.8926538,-2.220167 6.8926538,-4.960226 0,-0.274659 -0.02943,-0.5623988 -0.101362,-0.8207093 1.63161,-0.8370588 1.029974,-3.2599509 -0.778203,-3.2599509 z M 3.8611764,9.7313377 c 0,-0.719347 0.575478,-1.2980943 1.2980943,-1.2980943 0.7062688,0 1.2817467,0.575477 1.2817467,1.2980943 0,0.7062693 -0.5754779,1.2817463 -1.2817467,1.2817463 -0.719347,0.0032 -1.2980943,-0.575477 -1.2980943,-1.2817463 z m 6.9809376,1.2850163 c -0.706269,0 -1.2817473,-0.575478 -1.2817473,-1.2817469 0,-0.719347 0.5754783,-1.2980943 1.2817473,-1.2980943 0.719347,0 1.298094,0.5754779 1.298094,1.2980943 -0.0032,0.7029999 -0.578747,1.2817469 -1.298094,1.2817469 z"
     id="path10"
     style="fill:none;stroke:#000000;stroke-width:0.48987;stroke-miterlimit:4;stroke-dasharray:none;stroke-opacity:1"
     sodipodi:nodetypes="sccccssscccccscssscssssscsssscs" />
</svg>
