<?xml version="1.0" encoding="UTF-8" standalone="no"?>
<svg
   xmlns:dc="http://purl.org/dc/elements/1.1/"
   xmlns:cc="http://creativecommons.org/ns#"
   xmlns:rdf="http://www.w3.org/1999/02/22-rdf-syntax-ns#"
   xmlns:svg="http://www.w3.org/2000/svg"
   xmlns="http://www.w3.org/2000/svg"
   xmlns:sodipodi="http://sodipodi.sourceforge.net/DTD/sodipodi-0.dtd"
   xmlns:inkscape="http://www.inkscape.org/namespaces/inkscape"
   aria-hidden="true"
   focusable="false"
   data-prefix="fab"
   data-icon="slideshare"
   class="svg-inline--fa fa-slideshare fa-w-16"
   role="img"
   viewBox="0 0 16 16"
   version="1.1"
   id="svg12"
   sodipodi:docname="slideshare-brands.svg"
   width="16"
   height="16"
   inkscape:version="1.0.2 (e86c8708, 2021-01-15)">
  <metadata
     id="metadata18">
    <rdf:RDF>
      <cc:Work
         rdf:about="">
        <dc:format>image/svg+xml</dc:format>
        <dc:type
           rdf:resource="http://purl.org/dc/dcmitype/StillImage" />
        <dc:title></dc:title>
      </cc:Work>
    </rdf:RDF>
  </metadata>
  <defs
     id="defs16" />
  <sodipodi:namedview
     pagecolor="#ffffff"
     bordercolor="#666666"
     borderopacity="1"
     objecttolerance="10"
     gridtolerance="10"
     guidetolerance="10"
     inkscape:pageopacity="0"
     inkscape:pageshadow="2"
     inkscape:window-width="1167"
     inkscape:window-height="900"
     id="namedview14"
     showgrid="false"
     inkscape:zoom="30"
     inkscape:cx="8"
     inkscape:cy="8"
     inkscape:window-x="0"
     inkscape:window-y="0"
     inkscape:window-maximized="0"
     inkscape:current-layer="svg12" />
  <path
     fill="currentColor"
     d="m 5.8642927,4.8026144 c -1.0623864,0 -1.927919,0.8030393 -1.927919,1.8029326 0,0.9905193 0.8655326,1.8029326 1.927919,1.8029326 1.062387,0 1.927919,-0.8124133 1.927919,-1.8029326 0,-0.9998933 -0.865532,-1.8029326 -1.927919,-1.8029326 z m 4.4807723,0 c -1.0623873,0 -1.9279193,0.8030393 -1.9279193,1.8029326 0,0.9905193 0.865532,1.8029326 1.9279193,1.8029326 1.071761,0 1.927919,-0.8124133 1.927919,-1.8029326 0.0031,-0.9998933 -0.856158,-1.8029326 -1.927919,-1.8029326 z m 4.893228,2.8121999 -0.18748,0.1343606 V 1.5529612 C 15.050813,0.69680258 14.407132,1.9375983e-6 13.613466,1.9375983e-6 H 2.3927884 C 1.5991231,1.9375983e-6 0.95544177,0.69680258 0.95544177,1.5529612 v 6.1962137 c -0.0624934,-0.043745 -0.1343607,-0.090615 -0.196854,-0.1343606 -0.4718247,-0.3312147 -0.7842913,0.1249866 -0.4999467,0.5530659 0.571814,0.7061747 1.65919803,1.5717073 3.32152063,2.2497598 -1.7591873,5.989986 4.293292,6.946134 4.196427,3.877711 0,-0.02187 0.0094,-1.768561 0.0094,-3.018427 0.159358,0.03437 0.293719,0.07187 0.428079,0.09686 0,1.240493 0.0094,2.899691 0.0094,2.921563 -0.09686,3.071548 5.9556153,2.1154 4.1964283,-3.874586 1.659198,-0.6780528 2.749706,-1.5435854 3.32152,-2.2497601 0.284345,-0.431204 -0.02812,-0.8842806 -0.503071,-0.5561906 z M 14.28527,8.2147502 C 12.132374,9.3833755 10.276322,9.1865215 9.2670547,9.1427762 8.5265087,9.1146542 8.2484137,9.4271209 8.2140417,9.9208182 7.8922017,9.6802189 7.6328537,9.4364949 7.5797347,9.3865002 7.4203767,9.2177682 7.1516557,9.1365269 6.7329507,9.1459009 5.7424307,9.1802722 3.9301243,9.3771262 1.8147251,8.2709942 V 2.2591358 c 0,-1.0905086 0.2780953,-1.42797256 1.2686146,-1.42797256 h 9.9270663 c 0.946774,0 1.277988,0.40308196 1.277988,1.42797256 v 5.9556144 z"
     id="path10"
     style="stroke-width:0.0312467" />
</svg>
